<svg width="206" height="44" viewBox="0 0 206 44" fill="none" xmlns="http://www.w3.org/2000/svg">
<path d="M2.52 35V9.8H8.388L18.828 26.936H15.732L25.884 9.8H31.752L31.824 35H25.272L25.2 19.772H26.316L18.72 32.516H15.552L7.74 19.772H9.108V35H2.52Z" fill="#FFFFF0"/>
<path fill-rule="evenodd" clip-rule="evenodd" d="M46.0151 13L34 35H58L46.0151 13ZM38.9811 27.571C41.1648 25.3072 47.1502 22.138 53.0189 27.571C50.8252 29.8348 44.8377 32.8 38.9811 27.571ZM46.0151 26.1362C46.4377 26.1681 47.2106 26.3339 47.283 27.3797C47.3031 27.8792 47.1442 28.9357 45.9849 28.9101C44.5358 28.8783 44.6566 27.3797 44.6566 27.3797C44.6566 27.3797 44.7472 26.1681 46.0151 26.1362Z" fill="#FFFFF0"/>
<path d="M68.736 42.308C66.864 42.308 65.076 42.092 63.372 41.66C61.692 41.228 60.252 40.592 59.052 39.752L61.536 34.964C62.352 35.612 63.36 36.116 64.56 36.476C65.784 36.86 66.972 37.052 68.124 37.052C69.972 37.052 71.304 36.644 72.12 35.828C72.936 35.036 73.344 33.872 73.344 32.336V30.032L73.704 24.56L73.668 19.052V15.488H80.184V31.436C80.184 35.132 79.188 37.868 77.196 39.644C75.204 41.42 72.384 42.308 68.736 42.308ZM67.548 33.992C65.82 33.992 64.224 33.608 62.76 32.84C61.32 32.048 60.156 30.956 59.268 29.564C58.404 28.148 57.972 26.48 57.972 24.56C57.972 22.64 58.404 20.984 59.268 19.592C60.156 18.176 61.32 17.084 62.76 16.316C64.224 15.548 65.82 15.164 67.548 15.164C69.204 15.164 70.62 15.5 71.796 16.172C72.972 16.82 73.86 17.84 74.46 19.232C75.084 20.624 75.396 22.4 75.396 24.56C75.396 26.72 75.084 28.496 74.46 29.888C73.86 31.28 72.972 32.312 71.796 32.984C70.62 33.656 69.204 33.992 67.548 33.992ZM69.168 28.556C69.984 28.556 70.704 28.388 71.328 28.052C71.976 27.716 72.48 27.248 72.84 26.648C73.224 26.048 73.416 25.352 73.416 24.56C73.416 23.768 73.224 23.072 72.84 22.472C72.48 21.872 71.976 21.416 71.328 21.104C70.704 20.768 69.984 20.6 69.168 20.6C68.352 20.6 67.62 20.768 66.972 21.104C66.324 21.416 65.808 21.872 65.424 22.472C65.064 23.072 64.884 23.768 64.884 24.56C64.884 25.352 65.064 26.048 65.424 26.648C65.808 27.248 66.324 27.716 66.972 28.052C67.62 28.388 68.352 28.556 69.168 28.556Z" fill="#FFFFF0"/>
<path d="M84.196 35V15.488H91.036V35H84.196ZM87.616 13.328C86.368 13.328 85.36 12.98 84.592 12.284C83.824 11.588 83.44 10.724 83.44 9.692C83.44 8.66 83.824 7.796 84.592 7.1C85.36 6.404 86.368 6.056 87.616 6.056C88.864 6.056 89.872 6.392 90.64 7.064C91.408 7.712 91.792 8.552 91.792 9.584C91.792 10.664 91.408 11.564 90.64 12.284C89.896 12.98 88.888 13.328 87.616 13.328Z" fill="#FFFFF0"/>
<path d="M105.168 35.324C103.008 35.324 101.076 34.892 99.372 34.028C97.692 33.164 96.372 31.976 95.412 30.464C94.452 28.928 93.972 27.176 93.972 25.208C93.972 23.24 94.452 21.5 95.412 19.988C96.372 18.476 97.692 17.3 99.372 16.46C101.076 15.596 103.008 15.164 105.168 15.164C107.376 15.164 109.284 15.632 110.892 16.568C112.5 17.504 113.64 18.824 114.312 20.528L109.02 23.228C108.564 22.316 108 21.656 107.328 21.248C106.656 20.816 105.924 20.6 105.132 20.6C104.34 20.6 103.62 20.78 102.972 21.14C102.324 21.5 101.808 22.028 101.424 22.724C101.064 23.396 100.884 24.224 100.884 25.208C100.884 26.216 101.064 27.068 101.424 27.764C101.808 28.46 102.324 28.988 102.972 29.348C103.62 29.708 104.34 29.888 105.132 29.888C105.924 29.888 106.656 29.684 107.328 29.276C108 28.844 108.564 28.172 109.02 27.26L114.312 29.96C113.64 31.664 112.5 32.984 110.892 33.92C109.284 34.856 107.376 35.324 105.168 35.324Z" fill="#FFFFF0"/>
<path d="M121.884 31.4L122.064 23.228L130.02 15.488H138.12L129.3 24.596L125.808 27.404L121.884 31.4ZM116.196 35V8.288H123.036V35H116.196ZM130.524 35L124.548 27.512L128.796 22.256L138.804 35H130.524Z" fill="#FFFFF0"/>
<path d="M143.076 35.324C141.924 35.324 140.952 34.94 140.16 34.172C139.368 33.404 138.972 32.432 138.972 31.256C138.972 30.032 139.368 29.06 140.16 28.34C140.952 27.596 141.924 27.224 143.076 27.224C144.228 27.224 145.2 27.596 145.992 28.34C146.784 29.06 147.18 30.032 147.18 31.256C147.18 32.432 146.784 33.404 145.992 34.172C145.2 34.94 144.228 35.324 143.076 35.324Z" fill="#FFFFF0"/>
<path d="M150.52 35V9.8H156.388L166.828 26.936H163.732L173.884 9.8H179.752L179.824 35H173.272L173.2 19.772H174.316L166.72 32.516H163.552L155.74 19.772H157.108V35H150.52Z" fill="#FFFFF0"/>
<path d="M194.42 35.324C192.116 35.324 190.1 34.892 188.372 34.028C186.668 33.14 185.336 31.94 184.376 30.428C183.44 28.892 182.972 27.152 182.972 25.208C182.972 23.264 183.428 21.536 184.34 20.024C185.276 18.488 186.56 17.3 188.192 16.46C189.824 15.596 191.66 15.164 193.7 15.164C195.62 15.164 197.372 15.56 198.956 16.352C200.54 17.12 201.8 18.26 202.736 19.772C203.672 21.284 204.14 23.12 204.14 25.28C204.14 25.52 204.128 25.796 204.104 26.108C204.08 26.42 204.056 26.708 204.032 26.972H188.588V23.372H200.396L197.804 24.38C197.828 23.492 197.66 22.724 197.3 22.076C196.964 21.428 196.484 20.924 195.86 20.564C195.26 20.204 194.552 20.024 193.736 20.024C192.92 20.024 192.2 20.204 191.576 20.564C190.976 20.924 190.508 21.44 190.172 22.112C189.836 22.76 189.668 23.528 189.668 24.416V25.46C189.668 26.42 189.86 27.248 190.244 27.944C190.652 28.64 191.228 29.18 191.972 29.564C192.716 29.924 193.604 30.104 194.636 30.104C195.596 30.104 196.412 29.972 197.084 29.708C197.78 29.42 198.464 28.988 199.136 28.412L202.736 32.156C201.8 33.188 200.648 33.98 199.28 34.532C197.912 35.06 196.292 35.324 194.42 35.324Z" fill="#FFFFF0"/>
</svg>
